<?xml version="1.0" encoding="UTF-8" standalone="no"?>
<svg
   viewBox="0 0 158.89999 157.7"
   version="1.1"
   id="svg1"
   sodipodi:docname="nostr.svg"
   width="158.89999"
   height="157.7"
   inkscape:version="1.4.2 (ebf0e940d0, 2025-05-08)"
   xmlns:inkscape="http://www.inkscape.org/namespaces/inkscape"
   xmlns:sodipodi="http://sodipodi.sourceforge.net/DTD/sodipodi-0.dtd"
   xmlns="http://www.w3.org/2000/svg"
   xmlns:svg="http://www.w3.org/2000/svg">
  <defs
     id="defs1" />
  <sodipodi:namedview
     id="namedview1"
     pagecolor="#ffffff"
     bordercolor="#000000"
     borderopacity="0.25"
     inkscape:showpageshadow="2"
     inkscape:pageopacity="0.0"
     inkscape:pagecheckerboard="0"
     inkscape:deskcolor="#d1d1d1"
     inkscape:zoom="3.6367188"
     inkscape:cx="76.030075"
     inkscape:cy="80.429646"
     inkscape:window-width="3409"
     inkscape:window-height="1390"
     inkscape:window-x="0"
     inkscape:window-y="0"
     inkscape:window-maximized="0"
     inkscape:current-layer="svg1" />
  <path
     d="m 158.8,151.9 c 0,3.1 -2.5,5.7 -5.7,5.7 h -68 c -3.1,0 -5.7,-2.5 -5.7,-5.7 v -15.5 c 0.3,-19 2.3,-37.2 6.5,-45.5 2.5,-5 6.7,-7.7 11.5,-9.1 9.1,-2.7 24.9,-0.9 31.7,-1.2 0,0 20.4,0.8 20.4,-10.7 0,-11.5 -9.1,-8.6 -9.1,-8.6 -10,0.3 -17.7,-0.4 -22.6,-2.4 -8.3,-3.3 -8.6,-9.2 -8.6,-11.2 -0.4,-23.1 -34.5,-25.9 -64.5,-20.1 -32.8,6.2 0.4,53.3 0.4,116.1 v 8.4 c 0,3.1 -2.6,5.6 -5.7,5.6 H 5.7 C 2.6,157.7 0,155.2 0,152 V 8 C 0,4.9 2.5,2.3 5.7,2.3 h 31.7 c 3.1,0 5.7,2.5 5.7,5.7 0,4.7 5.2,7.2 9,4.5 C 63.5,4.3 78.1,0 94.5,0 c 36.6,0 64.4,21.4 64.4,68.7 v 83.2 z M 98,51.8 c 0,-6.7 -5.4,-12.1 -12.1,-12.1 -6.7,0 -12.1,5.4 -12.1,12.1 0,6.7 5.4,12.1 12.1,12.1 6.7,0 12.1,-5.4 12.1,-12.1 z"
     id="path1" />
</svg>
